<svg width="26" height="26" viewBox="0 0 26 26" fill="none" xmlns="http://www.w3.org/2000/svg">
<g clip-path="url(#clip0_4008_307)">
<path d="M19.919 8.70888C20.3518 8.61613 20.7228 8.24514 20.6919 7.81232C20.6919 7.25584 20.1664 6.85394 19.6408 6.94669L15.6836 7.68866C14.787 7.84324 13.8905 7.93599 12.9939 7.93599C12.0974 7.93599 11.2008 7.84324 10.3043 7.68866L6.40892 6.9776C5.9761 6.88486 5.51237 7.13218 5.35779 7.53408C5.1723 8.05965 5.51237 8.61613 6.03793 8.73979L10.768 9.60543L10.8298 12.0168C10.8608 13.5626 10.7062 15.1393 10.3352 16.6542L9.12949 21.3533C9.00583 21.848 9.22224 22.3736 9.68597 22.5591C10.2734 22.8064 10.8917 22.4663 11.0463 21.8789L12.7466 15.0157C12.8084 14.7683 13.1485 14.7683 13.2103 15.0157L14.9416 21.8789C15.0653 22.3426 15.4672 22.6209 15.9 22.6209C16.0546 22.6209 16.2092 22.59 16.3637 22.4972C16.7966 22.2808 16.982 21.7862 16.8584 21.3224L15.6836 16.5923C15.3126 15.0775 15.1271 13.5317 15.1889 11.955L15.2508 9.5436L19.919 8.70888Z" fill="black"/>
<path d="M12.9939 7.37962C14.1037 7.37962 15.0034 6.47993 15.0034 5.37011C15.0034 4.26029 14.1037 3.3606 12.9939 3.3606C11.8841 3.3606 10.9844 4.26029 10.9844 5.37011C10.9844 6.47993 11.8841 7.37962 12.9939 7.37962Z" fill="black"/>
<path d="M12.9999 25.3818C19.8381 25.3818 25.3815 19.8383 25.3815 13.0001C25.3815 6.16188 19.8381 0.618408 12.9999 0.618408C6.16163 0.618408 0.618164 6.16188 0.618164 13.0001C0.618164 19.8383 6.16163 25.3818 12.9999 25.3818Z" stroke="black" stroke-width="1.23662" stroke-miterlimit="10"/>
</g>
<defs>
<clipPath id="clip0_4008_307">
<rect width="26" height="26" fill="white"/>
</clipPath>
</defs>
</svg>
