<svg width="24" height="21" viewBox="0 0 24 21" fill="none" xmlns="http://www.w3.org/2000/svg">
<path d="M16.0685 18.7097L7.60908 12.9499C7.47963 12.8646 7.40186 12.7209 7.40186 12.5672V7.35805C7.40186 7.20441 7.47963 7.06072 7.60908 6.97536L16.0685 1.07811C16.3777 0.874196 16.7912 1.09328 16.7912 1.46079V18.327C16.7912 18.6945 16.3772 18.9136 16.0685 18.7097Z" stroke="#231F20" stroke-width="1.5" stroke-miterlimit="10"/>
<path d="M4.25 20C4.25 20.4142 4.58579 20.75 5 20.75C5.41421 20.75 5.75 20.4142 5.75 20L4.25 20ZM4.25 13L4.25 20L5.75 20L5.75 13L4.25 13Z" fill="#231F20"/>
<path d="M21.6401 14.7843C22.5041 13.3764 22.9997 11.7209 22.9997 9.94879C22.9997 8.17667 22.5041 6.52073 21.6401 5.11328" stroke="#231F20" stroke-width="1.5" stroke-miterlimit="10" stroke-linecap="round"/>
<path d="M19.3521 12.4953C19.7068 11.7176 19.9026 10.8569 19.9026 9.94834C19.9026 9.03976 19.7063 8.17907 19.3521 7.40137" stroke="#231F20" stroke-width="1.5" stroke-miterlimit="10" stroke-linecap="round"/>
<path d="M3.98751 6.97461H7.04901C7.24391 6.97461 7.40182 7.13252 7.40182 7.32742V12.5968C7.40182 12.7917 7.24391 12.9496 7.04901 12.9496H3.98751C2.33869 12.9496 1 11.6109 1 9.96212C1 8.3133 2.33869 6.97461 3.98751 6.97461Z" stroke="#231F20" stroke-width="1.5" stroke-miterlimit="10"/>
</svg>
