<svg width="70" height="27" viewBox="0 0 70 27" fill="none" xmlns="http://www.w3.org/2000/svg">
<g clip-path="url(#clip0_4008_311)">
<path fill-rule="evenodd" clip-rule="evenodd" d="M1.55724 13.5052L1.27148 13.222C2.34997 12.1254 4.14744 12.098 5.25357 13.1946L5.28123 13.222L4.98626 13.5052C4.03682 12.5641 2.50667 12.5641 1.58489 13.4778C1.58489 13.4778 1.57567 13.487 1.55724 13.5052ZM2.56198 14.4464L2.29466 14.1814C2.82008 13.6332 3.69577 13.6332 4.24883 14.154L4.27649 14.1814L4.00917 14.4464C3.82482 14.2637 3.5575 14.1632 3.2994 14.1632C3.0413 14.1632 2.77399 14.2637 2.56198 14.4464ZM3.2994 15.15L2.80164 14.6566C2.93069 14.5287 3.11504 14.4464 3.2994 14.4464C3.48376 14.4464 3.66811 14.5287 3.79716 14.6566L3.2994 15.15ZM3.2994 13.4778C3.75107 13.4778 4.16587 13.6606 4.4885 13.9713L4.8019 13.6606C3.98152 12.8199 2.66337 12.8016 1.82455 13.6058C1.82455 13.6058 1.80612 13.624 1.76925 13.6606L2.08265 13.9713C2.39606 13.6606 2.84773 13.4778 3.2994 13.4778Z" fill="#517BBA"/>
<path fill-rule="evenodd" clip-rule="evenodd" d="M1.37317 15.498H5.1156C2.424 22.2417 1.9539 26.2166 4.69158 26.107C-1.29077 26.4725 -0.525693 20.6974 1.37317 15.498Z" fill="#517BBA"/>
<path fill-rule="evenodd" clip-rule="evenodd" d="M4.83008 5.1441C8.2591 -0.393374 13.8174 -0.941639 17.7719 1.06867C22.1503 3.28914 23.5146 8.46111 22.4084 13.0391C21.4313 17.1968 18.6937 20.9798 15.1356 23.4105C12.951 24.8725 10.4714 25.8685 7.89039 26.2614C9.89065 25.6035 11.6605 24.4613 13.0616 22.8896C13.9281 21.9484 14.6747 20.925 15.3015 19.8285C17.3018 17.1328 18.2512 14.5012 18.3065 12.1984C18.4356 9.11903 17.0713 6.03047 14.223 4.62325C11.7158 3.37138 8.36971 3.41707 4.8393 5.1441" fill="#E06E3D"/>
<path fill-rule="evenodd" clip-rule="evenodd" d="M2.24936 11.3944C5.04235 5.9026 10.7943 5.51881 14.1956 7.89463C15.5414 8.83582 16.4632 10.2156 16.8319 11.8147C17.302 13.825 16.961 15.9176 16.1959 17.9005C15.4861 19.7554 14.4261 21.4551 13.0618 22.9171C11.1353 25.0371 8.36998 26.6544 5.42028 26.5996C4.23118 26.5996 3.06974 26.2889 2.07422 25.7132C3.47532 26.3894 5.63229 26.161 6.95044 25.6127C9.13506 24.7264 10.9049 22.8714 12.011 20.8337C13.3845 18.3208 14.4353 14.3002 12.2783 11.9975C10.2965 9.85011 6.39737 9.11909 2.25857 11.3944" fill="#489E53"/>
<path d="M67.8891 14.5288L68.5435 12.6464H68.3039C67.8799 12.619 67.4835 12.7743 67.1977 13.0941C66.9028 13.3774 66.7 13.7429 66.617 14.1633C66.5617 14.346 66.5617 14.5288 66.6447 14.7115C66.7276 14.8394 66.8567 14.9217 67.0134 14.9217C67.3268 14.8669 67.6218 14.7389 67.8799 14.5288M69.9907 11.7874L68.5896 15.6527H67.4558L67.5849 15.2872C67.2438 15.5522 66.8198 15.7075 66.3958 15.7349C66.0547 15.7624 65.7137 15.5522 65.5478 15.2689C65.3634 14.9034 65.3081 14.4557 65.4464 14.0445C65.5754 13.3683 65.9718 12.7378 66.5525 12.3174C67.1885 11.8423 67.9536 11.6138 68.7371 11.6412C69.1335 11.6686 69.5575 11.6961 69.9723 11.7966M65.3542 11.7418L63.9346 15.6893H62.8008L64.2204 11.7418H65.3542ZM64.5615 10.6452C64.6444 10.3071 64.9302 10.0421 65.2712 10.0421C65.4279 10.0421 65.557 10.097 65.6399 10.2249C65.7505 10.3528 65.769 10.5173 65.7229 10.6452C65.6952 10.828 65.5938 10.9559 65.4556 11.093C65.3265 11.2026 65.1698 11.2483 65.0039 11.2483C64.8749 11.2483 64.7182 11.1935 64.6352 11.093C64.5522 10.965 64.5338 10.8097 64.5522 10.6452M61.0218 14.7481L61.7592 12.7104C61.6578 12.6829 61.5749 12.6829 61.4735 12.6829C61.1048 12.6829 60.7361 12.7835 60.4411 13.021C60.1553 13.2312 59.9618 13.5419 59.888 13.8526C59.8051 14.0902 59.8604 14.3277 60.0171 14.5288C60.2014 14.7115 60.4411 14.812 60.6992 14.7938C60.8006 14.7938 60.9112 14.7938 61.0126 14.7389M63.9162 9.74972L61.833 15.6344C61.3813 15.7167 60.9389 15.7624 60.4872 15.7624C59.8051 15.7624 59.2981 15.5796 58.9847 15.2415C58.6713 14.9034 58.5607 14.4283 58.6989 13.8526C58.828 13.2221 59.169 12.6738 59.676 12.2809C60.2014 11.8605 60.8375 11.6321 61.5196 11.6321C61.7039 11.6321 61.8883 11.6595 62.0726 11.6869L62.7548 9.73145L63.9162 9.75886V9.74972ZM56.1917 11.7326L56.035 12.1804C56.4314 11.8697 56.9291 11.6869 57.4637 11.6595C57.7311 11.6321 57.9892 11.76 58.1459 11.9702C58.2749 12.2535 58.3026 12.5733 58.2012 12.8566C58.1735 12.9845 58.1459 13.0941 58.0998 13.1947L57.2333 15.6527H56.0995L56.9475 13.3043C56.9752 13.2221 57.0029 13.1764 57.0305 13.0941C57.1135 12.7012 57.0305 12.5185 56.7908 12.5185C56.5512 12.5185 56.1548 12.7286 55.7124 13.1216L54.8182 15.6527H53.6844L55.1132 11.7052H56.2193V11.7326H56.1917ZM54.5878 9.74972L52.4769 15.6801H51.2602L53.371 9.74972H54.5878ZM49.8959 9.74972L47.7851 15.6801H46.6789L48.7898 9.74972H49.8959ZM44.8907 14.5288L45.5451 12.6464H45.3055C44.8814 12.619 44.4851 12.7743 44.1993 13.0941C43.9136 13.3774 43.7016 13.7429 43.6186 14.1358C43.5633 14.3186 43.5633 14.5288 43.6463 14.6841C43.7292 14.812 43.8583 14.8943 44.015 14.8943C44.3284 14.8394 44.651 14.7389 44.8814 14.5288M46.9923 11.7874L45.6189 15.6801H44.4851L44.6141 15.3146C44.2731 15.5796 43.8491 15.7349 43.425 15.7624C43.0563 15.7898 42.7429 15.607 42.5586 15.2963C42.3742 14.9034 42.3189 14.4831 42.4572 14.0719C42.5862 13.3957 42.9826 12.7652 43.5633 12.3448C44.1993 11.8697 44.9644 11.6412 45.7479 11.6686C46.1443 11.6686 46.5683 11.6961 46.9831 11.7966M42.0792 10.9102L41.7382 11.7509H42.5586L42.2175 12.6098H41.3787L40.8809 13.8891C40.8256 13.9896 40.798 14.0993 40.7795 14.1998C40.6966 14.5379 40.7795 14.7207 41.0192 14.7207C41.2588 14.6932 41.4893 14.6201 41.7013 14.4831L41.4616 15.5248C41.1482 15.6801 40.798 15.7898 40.4292 15.7898C40.1158 15.8172 39.8209 15.6801 39.6365 15.4243C39.4798 15.141 39.4245 14.7938 39.5351 14.4831C39.5628 14.3734 39.6181 14.2455 39.6365 14.145L40.2449 12.6281H39.4798L39.8209 11.7692H40.5859L40.8994 10.9376L42.0884 10.9102H42.0792ZM39.3139 11.7509L37.9128 15.6984H36.779L38.1801 11.7509H39.3139ZM38.5488 10.6544C38.5765 10.499 38.6779 10.3437 38.8161 10.234C38.9452 10.1335 39.1111 10.0513 39.2678 10.0513C39.4245 10.0513 39.5536 10.1061 39.6365 10.234C39.7195 10.362 39.7379 10.5264 39.7195 10.6544C39.6642 10.8097 39.5904 10.965 39.4522 11.1021C39.3231 11.2118 39.1572 11.2575 39.0005 11.2575C38.8714 11.2575 38.7055 11.2026 38.6318 11.1021C38.5488 10.9742 38.5304 10.8188 38.5488 10.6544ZM34.8893 16.5573C34.917 16.3746 34.7787 16.2467 34.4377 16.1644L33.9676 16.0639C33.8109 16.0639 33.6542 16.1187 33.5159 16.1644C33.3315 16.2193 33.2025 16.3472 33.1748 16.5025C33.1195 16.7858 33.3592 16.9229 33.9123 16.9229C34.1519 16.9229 34.3916 16.8954 34.5944 16.8406C34.7234 16.7858 34.834 16.6853 34.8893 16.5482M34.834 13.9348C35.2581 13.9348 35.5162 13.6515 35.6268 13.0759C35.6821 12.9479 35.6544 12.7926 35.5715 12.6555C35.4885 12.555 35.3595 12.5002 35.2304 12.5002C34.8064 12.5002 34.5483 12.7835 34.41 13.3591C34.3086 13.7521 34.4653 13.9348 34.834 13.9348ZM37.5533 11.7418L37.2675 12.6007H36.6592C36.7145 12.8109 36.7145 13.021 36.6592 13.2312C36.5762 13.6515 36.3458 13.9896 35.9955 14.2546C35.6268 14.5379 35.2028 14.675 34.7326 14.675C34.5483 14.675 34.3916 14.675 34.2072 14.7024C34.0966 14.7024 34.0229 14.7846 34.0229 14.8851C33.9952 14.94 34.0229 14.9674 34.0966 15.0131C34.3639 15.0953 34.622 15.141 34.8893 15.1684C35.3595 15.2506 35.6821 15.3786 35.8388 15.5887C35.9955 15.8263 36.0784 16.1096 35.9955 16.3746C35.8111 17.2335 35.046 17.6539 33.7556 17.6539C33.3039 17.6813 32.8614 17.5991 32.4651 17.3889C32.1977 17.261 32.0687 16.9411 32.1517 16.6579C32.2346 16.2924 32.631 15.9817 33.2854 15.7715C32.9997 15.6436 32.8614 15.3238 32.9167 15.0405C32.9997 14.675 33.3131 14.4374 33.8385 14.3095C33.4698 14.0445 33.3131 13.6059 33.4145 13.1581C33.5159 12.7378 33.7556 12.3723 34.1243 12.1164C34.493 11.8331 34.9631 11.6686 35.4424 11.6686H37.5533V11.7509V11.7418ZM33.0734 11.7418L31.6723 15.6893H30.5385L31.9397 11.7418H33.0734ZM32.2807 10.6452C32.3084 10.4899 32.4098 10.3345 32.548 10.2249C32.6771 10.1244 32.8338 10.0695 32.9997 10.0421C33.1564 10.0421 33.2854 10.097 33.3684 10.2249C33.4514 10.3528 33.4698 10.5173 33.4514 10.6452C33.3961 10.828 33.3223 10.9559 33.1841 11.093C33.055 11.2026 32.8983 11.2483 32.7047 11.2483C32.5757 11.2483 32.419 11.1935 32.336 11.093C32.2531 10.965 32.2346 10.8097 32.2807 10.6452ZM27.2939 10.7457L25.8928 14.6932H27.0266C27.6073 14.6932 28.1327 14.4831 28.5567 14.0902C28.9807 13.6972 29.2665 13.1764 29.4048 12.6007C29.5338 12.1255 29.4601 11.6321 29.1927 11.2392C28.8793 10.8737 28.4 10.6635 27.9023 10.7183L27.2939 10.7457ZM26.4458 9.74972H28.3447C29.2941 9.74972 29.9763 10.0147 30.345 10.563C30.7137 11.1112 30.8151 11.7874 30.6307 12.6555C30.4464 13.4962 30.0223 14.2546 29.3679 14.8212C28.8148 15.3694 28.0497 15.6801 27.257 15.6801H24.335L26.4458 9.74972Z" fill="#262626"/>
<path fill-rule="evenodd" clip-rule="evenodd" d="M24.8886 19.7284H25.5522C25.7642 19.7284 25.9763 19.6736 26.133 19.5456C26.262 19.4177 26.345 19.235 26.345 19.0522C26.345 18.8695 26.262 18.6867 26.133 18.5588C25.9763 18.4308 25.7642 18.376 25.5522 18.376H24.8886V19.7375V19.7284ZM24.8886 20.0939V21.6108H24.4922V18.0014H25.4416C25.7827 17.974 26.1053 18.0836 26.3911 18.2664C26.6307 18.4491 26.7598 18.7324 26.7321 19.0522C26.7321 19.3355 26.6307 19.6279 26.3911 19.8106C26.1237 20.0208 25.7827 20.0939 25.4416 20.0939H24.8886Z" fill="#262626"/>
<path fill-rule="evenodd" clip-rule="evenodd" d="M28.29 21.2456C28.5296 21.2456 28.7601 21.1633 28.926 20.9806C29.1104 20.7978 29.1933 20.5602 29.1933 20.3226C29.1933 20.0851 29.1104 19.8292 28.926 19.6739C28.7693 19.4911 28.5296 19.3814 28.29 19.3814C28.0503 19.3814 27.8199 19.4911 27.654 19.6739C27.4696 19.8566 27.3866 20.0942 27.3866 20.3226C27.3866 20.5511 27.4696 20.8161 27.654 20.9806C27.8107 21.1633 28.0503 21.2638 28.29 21.2456ZM28.29 21.6111C27.9489 21.6385 27.6079 21.4831 27.3682 21.2456C26.8981 20.7247 26.8981 19.9114 27.3682 19.3906C27.866 18.8971 28.6864 18.8971 29.1841 19.3906C29.6634 19.9114 29.6634 20.7247 29.1841 21.2456C28.9721 21.4831 28.631 21.6111 28.29 21.6111Z" fill="#262626"/>
<path fill-rule="evenodd" clip-rule="evenodd" d="M31.0819 20.9526L31.8009 18.9697H32.0313L32.7503 20.9526L33.5154 18.9971H33.8565L32.8517 21.6105H32.6121L31.9023 19.6459L31.1925 21.6105H30.9529L29.9297 18.9971H30.3168L31.0819 20.9526Z" fill="#262626"/>
<path fill-rule="evenodd" clip-rule="evenodd" d="M36.0138 19.9929C35.9862 19.865 35.9309 19.7279 35.8571 19.6274C35.7281 19.4721 35.5161 19.3624 35.3041 19.3898C35.0921 19.3898 34.9077 19.4995 34.7786 19.6548C34.6957 19.7645 34.6496 19.8924 34.5943 20.0203L36.0138 19.9929ZM34.539 20.3036C34.539 20.5412 34.6404 20.7696 34.8247 20.9615C35.0091 21.1443 35.2488 21.2448 35.4884 21.2448C35.6451 21.2448 35.8018 21.2174 35.9401 21.1625C36.0968 21.1077 36.2258 21.0346 36.3641 20.925L36.4471 20.8427V21.2356H36.4194C36.2904 21.3362 36.1337 21.4458 35.9677 21.5006C35.47 21.6834 34.9446 21.5829 34.5482 21.2174C34.3085 20.9798 34.1795 20.6417 34.1795 20.2762C34.1518 19.9381 34.2809 19.6 34.4929 19.335C34.7049 19.0974 34.9907 18.9695 35.3133 18.9695C35.6267 18.9421 35.9493 19.07 36.1521 19.3076C36.3365 19.5726 36.4471 19.8833 36.4471 20.1939V20.2488L34.5482 20.3036H34.539Z" fill="#262626"/>
<path fill-rule="evenodd" clip-rule="evenodd" d="M37.5989 19.3902C37.8109 18.9973 38.281 18.8694 38.6774 19.0795H38.705C38.705 19.0795 38.7327 19.0795 38.7327 19.107V19.5273C38.7327 19.5273 38.7327 19.5273 38.705 19.5273C38.0966 19.1892 37.7556 19.6826 37.6265 19.9933V21.6381H37.2578V19.0247H37.6265V19.3902H37.5989Z" fill="#262626"/>
<path fill-rule="evenodd" clip-rule="evenodd" d="M41.3968 18.3673H40.2354V18.0566H42.9454V18.3673H41.7932V21.5564H41.3968V18.3673Z" fill="#262626"/>
<path fill-rule="evenodd" clip-rule="evenodd" d="M47.7206 18.4495V19.5734H49.1954V19.9115H47.7206V21.1908H49.4627V21.5563H47.3242V18.084H49.3798V18.4495H47.7206Z" fill="#262626"/>
<path fill-rule="evenodd" clip-rule="evenodd" d="M50.5139 19.3352C50.6983 19.125 50.9656 18.9971 51.2513 18.9971C51.5186 18.9971 51.7491 19.0793 51.9335 19.2803C51.9888 19.3352 52.0441 19.4083 52.0902 19.4905L52.1455 19.4083C52.3298 19.1707 52.6156 19.0153 52.9105 19.0153C53.1779 19.0153 53.4083 19.0976 53.5927 19.3078C53.777 19.4905 53.86 19.7555 53.86 20.0114V21.5556H53.4913V20.0114C53.4913 19.8286 53.436 19.6733 53.3346 19.5362C53.2332 19.4083 53.0672 19.3534 52.8829 19.3534C52.6709 19.3534 52.4589 19.4814 52.3298 19.6459C52.2745 19.7007 52.2469 19.7464 52.2008 19.8012V21.5282H51.8321V19.9839C51.8321 19.8012 51.7768 19.6459 51.6754 19.5088C51.574 19.3809 51.408 19.326 51.2237 19.326C51.0117 19.326 50.7997 19.454 50.6706 19.6093C50.6153 19.6641 50.5877 19.719 50.5416 19.7646V21.4917H50.1729V19.0062H50.5416V19.3169H50.5139V19.3352Z" fill="#262626"/>
<path d="M54.6797 19.0252H55.0484V19.3359C55.1314 19.2079 55.2604 19.0983 55.4171 19.0526C55.8872 18.8698 56.4219 18.9703 56.7629 19.3176C57.2146 19.8658 57.2146 20.6517 56.7906 21.2C56.3389 21.6934 55.6568 21.5929 55.1037 21.3005L55.0761 21.2731V22.4701H54.7073L54.6797 19.0252ZM56.2098 19.4912C55.8964 19.281 55.4448 19.3359 55.0484 19.8293V20.8527C55.4448 21.2731 55.9425 21.3005 56.2652 21.0629C56.6892 20.6974 56.7353 20.0669 56.3665 19.6557C56.3389 19.5734 56.2836 19.5278 56.2098 19.5003" fill="#262626"/>
<path d="M30.8518 16.2561H23.625V16.6764H30.8518V16.2561Z" fill="#262626"/>
<path d="M69.5484 16.256H36.6777V16.6763H69.5484V16.256Z" fill="#262626"/>
<path fill-rule="evenodd" clip-rule="evenodd" d="M43.9787 21.1904C44.2184 21.1904 44.4488 21.1082 44.6148 20.9254C44.7991 20.7427 44.8821 20.5051 44.8821 20.2766C44.8821 20.0482 44.7807 19.7832 44.6148 19.6004C44.4581 19.4177 44.2184 19.3355 43.9787 19.3355C43.7391 19.3355 43.5086 19.4177 43.3427 19.6004C43.1584 19.7832 43.0754 20.0208 43.0754 20.2766C43.0754 20.5142 43.1584 20.7701 43.3427 20.9254C43.4994 21.0808 43.7391 21.1904 43.9787 21.1904ZM43.9787 21.5285C43.6377 21.5285 43.2966 21.4006 43.057 21.163C42.8173 20.9254 42.6882 20.5873 42.6882 20.2218C42.6606 19.8837 42.7896 19.5456 43.057 19.2806C43.2966 19.043 43.6377 18.8877 43.9787 18.9151C44.3198 18.9151 44.6609 19.043 44.8729 19.2806C45.1125 19.5182 45.2416 19.8563 45.2416 20.2218C45.2416 20.5599 45.1125 20.898 44.8729 21.163C44.6332 21.4006 44.3198 21.5285 43.9787 21.5285Z" fill="#262626"/>
<path fill-rule="evenodd" clip-rule="evenodd" d="M58.8465 21.1904C59.0861 21.1904 59.3166 21.1082 59.4825 20.9254C59.6669 20.7427 59.7498 20.5051 59.7498 20.2766C59.7498 20.0482 59.6669 19.7832 59.4825 19.6004C59.1691 19.2623 58.616 19.2349 58.2473 19.573L58.2197 19.6004C58.0353 19.7832 57.9523 20.0208 57.9523 20.2766C57.9523 20.5142 58.0353 20.7701 58.2197 20.9254C58.404 21.0808 58.616 21.1904 58.8557 21.1904M58.8557 21.5285C58.5146 21.5559 58.1736 21.4006 57.9339 21.163C57.6942 20.9254 57.5652 20.5873 57.5652 20.2218C57.5375 19.8837 57.6666 19.5456 57.9339 19.2806C58.1736 19.043 58.5146 18.8877 58.8557 18.9151C59.1967 18.9151 59.5378 19.043 59.7775 19.2806C60.0171 19.5456 60.1462 19.8563 60.1462 20.2218C60.1462 20.5599 60.0171 20.898 59.7775 21.163C59.5378 21.4006 59.2244 21.5285 58.8557 21.5285Z" fill="#262626"/>
<path fill-rule="evenodd" clip-rule="evenodd" d="M61.6397 20.98L62.3494 18.9971H62.6167L63.3265 20.98L64.0639 19.0245H64.4326L63.4371 21.6105H63.1975L62.4877 19.6733L61.7503 21.6105H61.5383L60.5059 19.0245H60.9022L61.6397 20.98Z" fill="#262626"/>
<path fill-rule="evenodd" clip-rule="evenodd" d="M66.5986 19.9934C66.5709 19.8655 66.5156 19.7284 66.4419 19.6279C66.3128 19.4726 66.1008 19.3629 65.8888 19.3903C65.6768 19.3903 65.4924 19.5 65.3634 19.6553C65.2804 19.765 65.2067 19.8929 65.179 20.0208L66.5986 19.9934ZM65.1237 20.3041C65.1237 20.5417 65.2251 20.7701 65.4095 20.962C65.5938 21.1448 65.8335 21.2453 66.0732 21.2453C66.2299 21.2453 66.3866 21.2179 66.5248 21.1631C66.6815 21.1082 66.8106 21.0351 66.9488 20.9255L67.0502 20.8432V21.2362H67.0226C66.8935 21.3367 66.7276 21.4463 66.5709 21.5012C66.0732 21.6839 65.5201 21.5834 65.1422 21.2179C64.9025 20.9803 64.7734 20.6422 64.7734 20.2767C64.7734 19.9386 64.8748 19.6005 65.0868 19.3355C65.5109 18.8603 66.2206 18.8421 66.6907 19.2533C66.6907 19.2533 66.7092 19.2715 66.7461 19.3081C66.9581 19.5731 67.0595 19.8838 67.0318 20.1945V20.2493L65.1053 20.3041H65.1237Z" fill="#262626"/>
<path fill-rule="evenodd" clip-rule="evenodd" d="M68.1744 19.3624C68.3864 18.9969 68.8565 18.8416 69.2529 19.0517C69.2529 19.0517 69.2805 19.0517 69.2805 19.0792V19.4995L69.2529 19.4721C68.6445 19.134 68.3034 19.6274 68.1744 19.9472V21.592H67.8057V18.9786H68.1744V19.3716V19.3624Z" fill="#262626"/>
</g>
<defs>
<clipPath id="clip0_4008_311">
<rect width="70" height="26.6" fill="white"/>
</clipPath>
</defs>
</svg>
