<svg width="22" height="19" viewBox="0 0 22 19" fill="none" xmlns="http://www.w3.org/2000/svg">
<path d="M13.9766 0.905762L14.0957 0.934082C14.1716 0.96036 14.2407 1.0016 14.3008 1.0542L14.3838 1.14111L14.3848 1.14307L15.3047 2.34717L15.3701 2.45166C15.4236 2.5597 15.4438 2.68026 15.4277 2.80225V2.80322C15.4107 2.92937 15.3533 3.04423 15.2686 3.13623L18.4883 7.34521L18.6973 7.18506C18.8063 7.10107 18.9353 7.05519 19.0693 7.04736L19.2051 7.05225L19.3369 7.0835C19.4639 7.12673 19.5767 7.2065 19.6602 7.31494L20.9609 9.01709L21.0332 9.13525C21.1518 9.38178 21.1121 9.67792 20.9326 9.88525L20.832 9.98096L14.6309 14.7329L14.6318 14.7339C14.5078 14.8309 14.3598 14.8764 14.2158 14.8765C14.0095 14.8765 13.8039 14.7855 13.668 14.6069V14.6079L12.3672 12.9058V12.9048C12.1388 12.6036 12.1959 12.1736 12.4961 11.9419L12.7051 11.7808L12.291 11.2407C12.178 11.2619 12.0609 11.2807 11.9443 11.2876L11.9453 11.2886C11.7467 11.3026 11.5868 11.3618 11.4248 11.4839L11.4258 11.4849L5.63379 15.9263C5.49858 16.03 5.40334 16.1481 5.34082 16.2925L5.28906 16.4468C5.16266 16.9263 4.8875 17.3425 4.49414 17.6421C4.10433 17.9408 3.63808 18.1001 3.15332 18.1001C3.05063 18.1001 2.9488 18.0918 2.8457 18.0786H2.84375C2.25477 17.995 1.73056 17.6869 1.36523 17.2134H1.36426C1.0015 16.7369 0.842668 16.1488 0.917969 15.5562L0.957031 15.3374C1.07168 14.8346 1.3546 14.3921 1.7666 14.0737L1.91699 13.9673C2.27483 13.7353 2.68375 13.6136 3.12305 13.6177L3.28809 13.604C3.44627 13.5798 3.58594 13.5231 3.71777 13.4224L9.51172 8.97803L9.62012 8.88232C9.71776 8.78351 9.78576 8.67081 9.83496 8.52881L9.90918 8.33545C9.92823 8.29101 9.94943 8.24733 9.9707 8.20361L9.48828 7.5708C9.39949 7.61619 9.30346 7.64009 9.20801 7.64014C9.02128 7.64014 8.84006 7.55705 8.71777 7.40088L8.7168 7.3999L7.79688 6.19482C7.69618 6.06332 7.65234 5.90271 7.67383 5.73975C7.69531 5.57509 7.77844 5.42956 7.91113 5.33057L13.5225 1.02881C13.6519 0.927401 13.8122 0.884423 13.9766 0.905762ZM10.5898 9.01514C10.4658 9.2784 10.2876 9.49907 10.0508 9.68213H10.0498L4.25586 14.1265C3.92209 14.382 3.55823 14.5054 3.13281 14.5054H3.11035C2.81655 14.5054 2.53877 14.601 2.30371 14.7788C2.0572 14.9696 1.88731 15.2351 1.81836 15.5376L1.79492 15.6694C1.74958 16.0261 1.84772 16.3833 2.06836 16.6743L2.15625 16.7778C2.3394 16.9746 2.57311 17.1118 2.83398 17.1733L2.9668 17.1978L3.10059 17.2104C3.41037 17.2233 3.71019 17.1275 3.95703 16.939C4.1935 16.7569 4.35601 16.5109 4.43262 16.2231L4.47852 16.0728C4.59754 15.7299 4.80135 15.45 5.0957 15.2241L10.8867 10.7798H10.8877L10.9961 10.7017C11.2051 10.5628 11.4296 10.4734 11.6729 10.4302L10.5898 9.01514ZM18.9473 8.11182L16.4795 10.0044L13.1924 12.5249L14.251 13.9087L20.1338 9.396L19.0762 8.01221L18.9473 8.11182ZM10.1953 7.04053L13.4082 11.2417L15.5967 9.56494L17.7852 7.88721L14.5723 3.68408L10.1953 7.04053ZM8.66309 5.86865L9.25684 6.64502L10.5195 5.67627L14.4365 2.67236L13.8438 1.89697L8.66309 5.86865Z" fill="white" stroke="white" stroke-width="0.2"/>
</svg>
