<svg width="24" height="23" viewBox="0 0 24 23" fill="none" xmlns="http://www.w3.org/2000/svg">
<path d="M4.3623 13.6092V8.56553C4.3623 4.40449 7.76679 1 11.9278 1C16.0889 1 19.4934 4.40449 19.4934 8.56553V13.6092" stroke="#231F20" stroke-width="1.5" stroke-miterlimit="10"/>
<path d="M4.36246 13.189C4.36246 12.2605 3.60975 11.5078 2.68123 11.5078C1.75271 11.5078 1 12.2605 1 13.189V15.7109C1 16.6394 1.75271 17.3921 2.68123 17.3921C3.60975 17.3921 4.36246 16.6394 4.36246 15.7109V13.189Z" stroke="#231F20" stroke-width="1.5" stroke-miterlimit="10"/>
<path d="M14.0783 19.0729C13.3819 19.0729 12.8174 19.6374 12.8174 20.3338C12.8174 21.0302 13.3819 21.5947 14.0783 21.5947H14.8704C15.5667 21.5947 16.1313 21.0302 16.1313 20.3338C16.1313 19.6374 15.5667 19.0729 14.8704 19.0729H14.0783Z" stroke="#231F20" stroke-width="1.5" stroke-miterlimit="10"/>
<path d="M22.8561 13.189C22.8561 12.2605 22.1034 11.5078 21.1749 11.5078C20.2464 11.5078 19.4937 12.2605 19.4937 13.189V15.7109C19.4937 16.6394 20.2464 17.3921 21.1749 17.3921C22.1034 17.3921 22.8561 16.6394 22.8561 15.7109V13.189Z" stroke="#231F20" stroke-width="1.5" stroke-miterlimit="10"/>
<path d="M16.1309 20.7544H17.5001C18.6013 20.7544 19.4933 19.8624 19.4933 18.7612V14.8701" stroke="#231F20" stroke-width="1.5" stroke-miterlimit="10"/>
</svg>
