<svg width="28" height="32" viewBox="0 0 28 32" fill="none" xmlns="http://www.w3.org/2000/svg">
<g clip-path="url(#clip0_5457_763)">
<path d="M13.9985 16.2966C18.2457 16.2966 21.6888 12.8535 21.6888 8.60629C21.6888 4.35907 18.2457 0.916016 13.9985 0.916016C9.75125 0.916016 6.3082 4.35907 6.3082 8.60629C6.3082 12.8535 9.75125 16.2966 13.9985 16.2966Z" fill="#323232"/>
<path d="M14.0001 13.93C16.9404 13.93 19.324 11.5464 19.324 8.60612C19.324 5.66581 16.9404 3.28223 14.0001 3.28223C11.0598 3.28223 8.67618 5.66581 8.67618 8.60612C8.67618 11.5464 11.0598 13.93 14.0001 13.93Z" fill="#F2F1FA"/>
<path d="M25.2389 31.0841V27.5355C25.2389 24.8172 23.0281 22.6063 20.3097 22.6063H17.5972L14 25.626L10.3969 22.6063H7.69028C4.97194 22.6063 2.76111 24.8172 2.76111 27.5355V31.0841H0V27.5355C0 23.2947 3.44944 19.8452 7.69028 19.8452H20.3097C24.5506 19.8452 28 23.2947 28 27.5355V31.0841H25.2389Z" fill="#323232"/>
<path d="M14 23.876L15.75 30.876H12.25L14 23.876Z" fill="#323232"/>
</g>
<defs>
<clipPath id="clip0_5457_763">
<rect width="28" height="30.1681" fill="white" transform="translate(0 0.916016)"/>
</clipPath>
</defs>
</svg>
