<svg width="44" height="27" viewBox="0 0 44 27" fill="none" xmlns="http://www.w3.org/2000/svg">
<g clip-path="url(#clip0_5457_755)">
<path d="M44 9.62586L21.9987 0L0 9.62586L3.44444 11.5626V16.3567C2.62911 16.8032 2.07469 17.6687 2.07469 18.6622V24.1462C2.07469 25.5937 3.25127 26.7703 4.69879 26.7703C6.1463 26.7703 7.32288 25.5937 7.32288 24.1462V18.6622C7.32288 17.6687 6.76846 16.8032 5.95313 16.3567V12.975L10.6921 15.6417L8.06295 20.6566L8.89583 21.2988C12.8144 24.3268 17.3476 25.9274 22.0013 25.9274C26.6549 25.9274 31.1856 24.3268 35.1067 21.2988L35.9396 20.6566L33.3105 15.6392L44.0025 9.62335L44 9.62586ZM4.69879 24.2616C4.63858 24.2616 4.58339 24.2064 4.58339 24.1462V18.8679H4.81669V24.1462C4.81669 24.2064 4.7615 24.2616 4.70129 24.2616H4.69879ZM21.9987 2.7395L38.383 9.90684L21.9987 19.1213L5.61697 9.90684L21.9987 2.7395ZM32.7259 19.9341C29.4546 22.217 25.7668 23.4187 22.0013 23.4187C18.2357 23.4187 14.5479 22.217 11.2741 19.9341L12.8796 16.871L21.9987 22.0013L31.1179 16.871L32.7234 19.9341H32.7259Z" fill="#242424"/>
</g>
<defs>
<clipPath id="clip0_5457_755">
<rect width="44" height="26.7703" fill="white"/>
</clipPath>
</defs>
</svg>
